<svg width="28" height="28" viewBox="0 0 28 28" fill="none" xmlns="http://www.w3.org/2000/svg">
<path fill-rule="evenodd" clip-rule="evenodd" d="M14.0013 17.7253L20.906 24.7947C21.5987 25.5093 22.0493 25.5167 22.7547 24.7947L24.14 23.376C24.8187 22.6813 24.8647 22.2253 24.14 21.4833L16.83 14L24.1407 6.51667C24.8253 5.81334 24.8387 5.33867 24.1407 4.62334L22.7553 3.20534C22.0367 2.46934 21.5927 2.50334 20.9067 3.20534L14.0013 10.2747L7.09666 3.20601C6.41066 2.50401 5.96666 2.47001 5.24799 3.20601L3.86266 4.62401C3.16399 5.33934 3.17666 5.81401 3.86266 6.51734L11.1727 14L3.86266 21.4833C3.13799 22.2253 3.17666 22.6813 3.86266 23.376L5.24732 24.7947C5.94666 25.5167 6.39732 25.5093 7.09599 24.7947L14.0013 17.7253Z" fill="#FF6363"/>
</svg>
