<svg width="23" height="24" viewBox="0 0 23 24" fill="none" xmlns="http://www.w3.org/2000/svg">
<g clip-path="url(#clip0_1_250)">
<path fill-rule="evenodd" clip-rule="evenodd" d="M13.1449 2.14286C13.1449 1.70714 12.9718 1.28928 12.6637 0.981182C12.3556 0.673086 11.9377 0.5 11.502 0.5C11.0663 0.5 10.6484 0.673086 10.3403 0.981182C10.0322 1.28928 9.85916 1.70714 9.85916 2.14286V10.3571H1.64487C1.20916 10.3571 0.791291 10.5302 0.483196 10.8383C0.1751 11.1464 0.00201416 11.5643 0.00201416 12C0.00201416 12.4357 0.1751 12.8536 0.483196 13.1617C0.791291 13.4698 1.20916 13.6429 1.64487 13.6429H9.85916V21.8571C9.85916 22.2929 10.0322 22.7107 10.3403 23.0188C10.6484 23.3269 11.0663 23.5 11.502 23.5C11.9377 23.5 12.3556 23.3269 12.6637 23.0188C12.9718 22.7107 13.1449 22.2929 13.1449 21.8571V13.6429H21.3592C21.7949 13.6429 22.2127 13.4698 22.5208 13.1617C22.8289 12.8536 23.002 12.4357 23.002 12C23.002 11.5643 22.8289 11.1464 22.5208 10.8383C22.2127 10.5302 21.7949 10.3571 21.3592 10.3571H13.1449V2.14286Z" fill="black" fill-opacity="0.6"/>
</g>
<defs>
<clipPath id="clip0_1_250">
<rect width="23" height="23" fill="white" transform="translate(0.00201416 0.5)"/>
</clipPath>
</defs>
</svg>
