<svg width="30" height="36" viewBox="0 0 30 36" fill="none" xmlns="http://www.w3.org/2000/svg">
<path d="M29.3403 29.1694C28.9804 29.1694 28.6805 29.4039 28.6805 29.6971V34.6515C28.6805 34.7292 28.6426 34.8038 28.5751 34.8588C28.5076 34.9137 28.4161 34.9446 28.3207 34.9446H24.8301V24.557C24.8301 24.2639 24.5422 24.0391 24.1823 24.0391C23.8225 24.0391 23.5346 24.2736 23.5346 24.557V34.9446H16.4694L18.5206 33.127C18.6357 33.022 18.7202 32.8971 18.768 32.7618C18.8157 32.6265 18.8255 32.4841 18.7965 32.3453L16.8533 23.0326L17.381 22.3974C17.6689 22.5635 17.8848 22.7297 18.3047 22.7297C18.7365 22.7297 19.1443 22.5342 19.3363 22.2117L21.3755 18.8893L26.0656 20.3551C26.2335 20.4039 28.7045 21.3029 28.7045 23.6775V30.4202C28.7045 30.7134 28.9924 30.9381 29.3523 30.9381C29.7121 30.9381 30 30.7036 30 30.4104V23.6678C29.9971 22.7555 29.6691 21.8636 29.0559 21.1003C28.4426 20.337 27.5705 19.7353 26.5454 19.3681L18.7485 16.9251V15.4495C20.0172 14.6563 20.8494 13.4866 21.0636 12.1955C21.6873 12.1564 22.2631 11.9707 22.7189 11.6482C22.9936 11.4571 23.2191 11.2236 23.3825 10.9611C23.5458 10.6986 23.6436 10.4124 23.6704 10.1189C23.6972 9.82547 23.6523 9.53059 23.5384 9.25132C23.4245 8.97206 23.2438 8.71394 23.0068 8.49188V6.53748C22.9973 4.79756 22.1405 3.13184 20.6247 1.90611C19.1088 0.680374 17.0578 -0.00516637 14.922 2.93194e-05C10.4718 2.93194e-05 6.84926 2.93162 6.84926 6.53748V8.54074C6.40544 8.93162 6.17753 9.42999 6.17753 9.9479C6.17753 10.6026 6.52539 11.2183 7.13715 11.6482C7.60496 11.9707 8.18073 12.1564 8.79248 12.1955C8.90071 12.8559 9.17363 13.4914 9.59444 14.0627C10.0153 14.6341 10.5751 15.1293 11.2395 15.5179V16.9251L3.44262 19.3681C2.41978 19.7367 1.55014 20.3391 0.939096 21.1023C0.328053 21.8654 0.00184219 22.7566 0 23.6678V34.6515C0 35.3941 0.743703 36 1.66733 36H11.7913C12.1511 36 12.451 35.7655 12.451 35.4723C12.451 35.1792 12.1511 34.9446 11.7913 34.9446H6.47741V24.557C6.47741 24.2639 6.18952 24.0391 5.82967 24.0391C5.46981 24.0391 5.18193 24.2736 5.18193 24.557V34.9446H1.67933C1.58389 34.9446 1.49236 34.9137 1.42487 34.8588C1.35739 34.8038 1.31947 34.7292 1.31947 34.6515V23.6678C1.32032 22.9671 1.56839 22.2814 2.03414 21.6923C2.49989 21.1033 3.16367 20.6357 3.94642 20.3453L8.62455 18.8795L10.6757 22.2117C10.8677 22.5342 11.2755 22.7297 11.6953 22.7297C12.1152 22.7297 12.3311 22.5635 12.6309 22.3974L13.1587 23.0326L11.2035 32.3551V32.3648C11.1555 32.6482 11.2635 32.9316 11.4914 33.127L13.5306 34.9446H10.9156C10.5558 34.9446 10.2679 35.1792 10.2679 35.4723C10.2679 35.7655 10.5558 36 10.9156 36H28.3087C29.2323 36 29.976 35.3941 29.976 34.6515V29.7068C29.976 29.4137 29.6881 29.1792 29.3283 29.1792L29.3403 29.1694ZM20.1519 18.4984L18.2327 21.6059L15.9296 20.2769L18.3047 17.9218L20.1519 18.4984ZM16.3015 21.7818L15.8097 22.3876H14.1783L13.6865 21.7818L14.994 21.0293L16.3015 21.7818ZM12.535 17.0912V16.114C13.3267 16.3681 14.1783 16.4854 15.006 16.4854C15.8577 16.4854 16.6853 16.3388 17.441 16.0749V17.101L14.994 19.544L12.535 17.101V17.0912ZM22.3711 9.95767C22.3687 10.2437 22.2402 10.5195 22.009 10.7348C21.7778 10.9501 21.4593 11.0905 21.1116 11.1303V8.77527C21.8553 8.87298 22.3711 9.38113 22.3711 9.9479V9.95767ZM8.73251 11.1303C8.3848 11.0905 8.06628 10.9501 7.83506 10.7348C7.60384 10.5195 7.47534 10.2437 7.47301 9.95767C7.47301 9.3909 8.06078 8.93162 8.73251 8.80458V11.1303ZM8.76849 7.72966C8.55674 7.7487 8.34781 7.7847 8.14474 7.83716V6.54726C8.14474 3.51794 11.1915 1.06518 14.922 1.06518C16.7111 1.05998 18.4295 1.6333 19.7002 2.65928C20.9708 3.68526 21.6898 5.08006 21.6993 6.53748V7.80784C21.5037 7.76153 21.3027 7.73206 21.0996 7.71989C21.0996 7.21175 21.1116 7.30947 19.0604 5.5212C18.8734 5.35795 18.6216 5.25374 18.3495 5.22692C18.0774 5.20011 17.8024 5.25241 17.573 5.37462C15.3234 6.5723 12.6635 7.15425 9.98001 7.03585C9.71097 7.02176 9.44428 7.08422 9.22549 7.21254C9.00671 7.34087 8.84941 7.52711 8.78049 7.73944L8.76849 7.72966ZM10.04 11.5407V8.08146C12.8589 8.21826 15.7977 7.53422 18.1967 6.30296C19.1323 7.1238 19.6361 7.55377 19.8041 7.71989V11.5407C19.7977 12.574 19.2894 13.5632 18.3903 14.292C17.4912 15.0209 16.2744 15.43 15.006 15.43C14.3648 15.4456 13.7261 15.3568 13.1276 15.1689C12.529 14.9809 11.9824 14.6975 11.52 14.3353C11.0575 13.9731 10.6884 13.5394 10.4342 13.0595C10.1801 12.5797 10.0461 12.0633 10.04 11.5407ZM11.7433 21.6059L9.82407 18.4984L11.6833 17.9121L14.0464 20.2867L11.7433 21.6059ZM12.499 32.4625L14.3822 23.4528H15.5938L17.477 32.4723L14.982 34.7003L12.487 32.4723L12.499 32.4625Z" fill="#5BAE32"/>
</svg>
