<svg width="30" height="39" viewBox="0 0 30 39" fill="none" xmlns="http://www.w3.org/2000/svg">
<path d="M28.9599 14.3413C28.9599 13.8506 29.1935 13.2818 29.4416 12.68C29.8166 11.7715 30.2033 10.832 29.8757 9.90754C29.5356 8.94487 28.5558 8.35909 27.6914 7.84265C27.1235 7.50309 26.5867 7.18309 26.295 6.8142C25.9965 6.4382 25.8269 5.86576 25.6466 5.25865C25.3782 4.35198 25.0739 3.32443 24.193 2.73598C23.3208 2.15465 22.2161 2.20265 21.1491 2.24798C20.4591 2.2782 19.8069 2.30665 19.3146 2.15909C18.8563 2.02309 18.3669 1.65954 17.8474 1.27554C17.0392 0.676426 16.1234 -0.00268555 15.0003 -0.00268555C13.8761 -0.00268555 12.9603 0.676426 12.1512 1.27554C11.6327 1.66043 11.1433 2.02309 10.6849 2.15998C10.1926 2.30665 9.54141 2.2782 8.85045 2.24887C7.78251 2.20265 6.67873 2.15465 5.80655 2.73687C4.92565 3.32354 4.62136 4.35198 4.35292 5.25954C4.17267 5.86576 4.00405 6.4382 3.7046 6.81509C3.41291 7.18309 2.87603 7.50309 2.30912 7.84265C1.44372 8.35909 0.463978 8.94487 0.123828 9.90754C-0.203723 10.832 0.182943 11.7715 0.557979 12.6809C0.805096 13.2818 1.03961 13.8506 1.03961 14.3413C1.03961 14.832 0.805096 15.4009 0.557979 16.0026C0.182943 16.9111 -0.203723 17.8506 0.122859 18.7751C0.463978 19.7378 1.44372 20.3235 2.30815 20.84C2.87603 21.1795 3.41291 21.4995 3.7046 21.8684C4.00308 22.2444 4.17267 22.8169 4.35292 23.424C4.62136 24.3306 4.92565 25.3582 5.80655 25.9458C6.67873 26.528 7.78348 26.48 8.85045 26.4346C9.54044 26.4044 10.1917 26.376 10.6849 26.5235C11.1433 26.6595 11.6327 27.0222 12.1521 27.4071C12.5427 27.6969 12.9584 28.0044 13.411 28.2453L10.7305 37.0631L8.25737 34.5342C8.16837 34.4434 8.05299 34.3778 7.92477 34.3451C7.79655 34.3123 7.6608 34.3138 7.53346 34.3493L3.99242 35.3395L6.71168 25.9795C6.76141 25.8157 6.73814 25.6404 6.647 25.4923C6.55586 25.3442 6.40431 25.2354 6.22568 25.1898C6.04705 25.1441 5.85598 25.1655 5.69451 25.2491C5.53303 25.3327 5.41438 25.4717 5.36465 25.6355L2.30427 36.1209C2.27045 36.2316 2.26974 36.3487 2.30222 36.4597C2.3347 36.5708 2.39916 36.6718 2.48885 36.7522C2.57855 36.8326 2.69016 36.8893 2.812 36.9165C2.93383 36.9437 3.06139 36.9403 3.18129 36.9066L7.51602 35.6951L10.5425 38.7884C10.626 38.8741 10.7332 38.9377 10.8527 38.9723C10.9723 39.007 11.0998 39.0115 11.2219 38.9854C11.3439 38.9593 11.4561 38.9036 11.5467 38.824C11.6372 38.7445 11.7027 38.6441 11.7364 38.5333L14.7328 28.6711C14.821 28.6791 14.9101 28.6853 15.0003 28.6853C15.0914 28.6853 15.1795 28.6791 15.2677 28.6711L18.2661 38.5333C18.2996 38.6441 18.3651 38.7447 18.4555 38.8243C18.546 38.904 18.6582 38.9598 18.7803 38.986C18.9024 39.0122 19.03 39.0077 19.1495 38.9731C19.2691 38.9385 19.3764 38.875 19.46 38.7893L22.4855 35.6951L26.8202 36.9066C26.9401 36.9403 27.0677 36.9437 27.1895 36.9165C27.3113 36.8893 27.423 36.8326 27.5126 36.7522C27.6023 36.6718 27.6668 36.5708 27.6993 36.4597C27.7318 36.3487 27.7311 36.2316 27.6972 36.1209L24.5235 25.68C25.1563 25.0782 25.415 24.2062 25.6476 23.4231C25.8269 22.8169 25.9965 22.2435 26.295 21.8675C26.5876 21.4995 27.1235 21.1786 27.6914 20.84C28.5558 20.3235 29.5356 19.7378 29.8767 18.7742C30.2043 17.8498 29.8166 16.9102 29.4426 16.0018C29.1945 15.4 28.9599 14.832 28.9599 14.3413ZM26.0062 35.3395L22.4642 34.3493C22.3368 34.3137 22.2011 34.3121 22.0728 34.3449C21.9446 34.3777 21.8292 34.4433 21.7403 34.5342L19.2691 37.0622L16.5876 28.2453C17.0402 28.0044 17.4559 27.6969 17.8465 27.4071C18.3649 27.0222 18.8553 26.6586 19.3137 26.5226C19.8069 26.376 20.4572 26.4035 21.1481 26.4338C21.8653 26.4649 22.6008 26.496 23.2704 26.336L26.0062 35.3395ZM28.5452 18.3795C28.3572 18.9111 27.6623 19.3262 26.9268 19.7662C26.2775 20.1538 25.6069 20.5546 25.1631 21.1138C24.7134 21.68 24.5012 22.3955 24.2967 23.0871C24.068 23.8586 23.8529 24.5866 23.3693 24.9093C22.8944 25.2258 22.0785 25.1902 21.214 25.1529C20.4291 25.1191 19.617 25.0844 18.8824 25.3031C18.1779 25.5129 17.5625 25.9689 16.9675 26.4098C16.2795 26.9209 15.6282 27.4026 14.9983 27.4026C14.3684 27.4026 13.7191 26.9209 13.0301 26.4098C12.4351 25.9689 11.8188 25.512 11.1152 25.3031C10.652 25.1653 10.1577 25.128 9.65867 25.128C9.36794 25.128 9.07334 25.1404 8.78358 25.1529C7.91916 25.1902 7.10222 25.2258 6.62833 24.9093C6.14476 24.5866 5.92962 23.8586 5.70092 23.0871C5.49644 22.3955 5.28421 21.68 4.83456 21.1138C4.39071 20.5538 3.72011 20.1538 3.07082 19.7653C2.33431 19.3262 1.64045 18.9111 1.45245 18.3786C1.27607 17.8826 1.56195 17.1893 1.86431 16.4551C2.14534 15.7724 2.43607 15.0666 2.43607 14.3413C2.43607 13.616 2.14534 12.9102 1.86431 12.2275C1.56195 11.4933 1.27607 10.8 1.45245 10.304C1.64045 9.77154 2.33528 9.35643 3.07082 8.91731C3.72011 8.52976 4.39071 8.12887 4.83456 7.56976C5.28421 7.00265 5.49644 6.28709 5.70092 5.59643C5.92962 4.82487 6.14476 4.09598 6.62833 3.7742C7.10319 3.45687 7.91916 3.49243 8.78358 3.52976C9.56854 3.56354 10.3806 3.59909 11.1152 3.37954C11.8197 3.16976 12.4351 2.71376 13.0301 2.27287C13.7182 1.76176 14.3694 1.27998 14.9993 1.27998C15.6292 1.27998 16.2785 1.76176 16.9675 2.27287C17.5625 2.71376 18.1779 3.17065 18.8824 3.37954C19.618 3.5982 20.4291 3.56354 21.214 3.52976C22.0785 3.49243 22.8954 3.45687 23.3693 3.77331C23.8519 4.09598 24.068 4.82398 24.2967 5.59554C24.5012 6.28709 24.7134 7.00265 25.1631 7.56887C25.6069 8.12887 26.2775 8.52887 26.9268 8.91731C27.6623 9.35643 28.3572 9.77154 28.5452 10.304C28.7216 10.8 28.4357 11.4933 28.1333 12.2266C27.8523 12.9102 27.5616 13.616 27.5616 14.3413C27.5616 15.0666 27.8523 15.7724 28.1333 16.4551C28.4357 17.1893 28.7216 17.8835 28.5452 18.3795ZM11.498 12.4151C11.59 12.4158 11.678 12.4498 11.7428 12.5098C11.8076 12.5697 11.844 12.6507 11.844 12.7351V18.4942C11.844 18.6711 11.6889 18.8142 11.498 18.8142H10.1132C10.0211 18.8137 9.93293 18.7798 9.86807 18.7198C9.80322 18.6598 9.76694 18.5787 9.7672 18.4942V12.7342C9.7672 12.5582 9.92226 12.4142 10.1132 12.4142L11.498 12.4151ZM15.7552 9.46754C16.0101 9.40887 16.3269 9.46487 16.5527 9.57598C17.2485 9.91731 17.4114 10.8782 17.1604 11.5084L16.797 12.4195C16.797 12.4195 19.398 12.4106 19.4542 12.4195C20.3738 12.5618 20.6365 13.7093 19.8496 14.1724C19.9772 14.3849 20.0126 14.6338 19.9486 14.8692C19.8846 15.1046 19.726 15.3091 19.5046 15.4418C19.6319 15.6542 19.6671 15.9028 19.6032 16.138C19.5392 16.3732 19.3808 16.5776 19.1596 16.7102C19.5424 17.3324 19.0336 18.1289 18.2583 18.1289H12.5068V13.0533C12.5068 13.0533 14.1707 11.6684 14.7066 11.1875C15.0138 10.912 15.2125 10.5458 15.292 10.16C15.323 10.0071 15.3143 9.84709 15.4024 9.7102C15.48 9.58976 15.6075 9.50249 15.7552 9.46754Z" fill="#17A700"/>
</svg>
