<svg width="30" height="36" viewBox="0 0 30 36" fill="none" xmlns="http://www.w3.org/2000/svg">
<path d="M23.1 0.000606222C24.9037 -0.0267512 26.6423 0.872794 27.9354 2.50241C29.2286 4.13203 29.9709 6.35903 30 8.69611C30 13.5042 26.9053 17.4121 23.1 17.4121H22.9105L22.7211 17.4018V31.1817C22.7093 32.4363 22.3243 33.6367 21.6462 34.5325C20.9682 35.4283 20.0494 35.9503 19.0816 35.9898H18.7342L18.6553 35.9795V36H3.64737V35.9795C2.70892 35.9437 1.81466 35.4548 1.13992 34.6089C0.465183 33.763 0.0586393 32.6209 0 31.4067V28.4707C0 28.1638 0.189474 27.9388 0.418421 27.8978H3.94737L4.05789 6.40459C4.05789 6.09769 4.23947 5.82148 4.47632 5.77033H16.6105C17.1169 4.0727 18.0077 2.61321 19.1659 1.5835C20.324 0.55379 21.6954 0.00200665 23.1 0.000606222ZM15.0711 29.105H0.971053V31.1817C0.984501 32.1118 1.27138 33.0003 1.77315 33.6657C2.27491 34.3311 2.95373 34.7232 3.67105 34.7622H16.3579C16.3105 34.6906 16.2474 34.6394 16.2 34.578C15.53 33.7503 15.1266 32.6246 15.0711 31.4272V29.105ZM16.3342 6.97747H5.02105L4.91053 27.8774H15.5684C15.7026 27.8774 15.8211 27.9285 15.9079 28.0411C15.9789 28.1331 16.0263 28.2457 16.0342 28.3684V31.1714C16.0477 32.1043 16.3354 32.9953 16.8386 33.6627C17.3419 34.33 18.0227 34.7232 18.7421 34.7622H18.9079C19.6245 34.7751 20.3178 34.4328 20.8461 33.8053C21.3744 33.1778 21.6977 32.3124 21.75 31.3863V17.2382C20.0136 16.8067 18.4725 15.5243 17.4474 13.6577L17.3132 13.4019H12.1974C12.1338 13.4047 12.0705 13.3908 12.0112 13.3612C11.9519 13.3316 11.8978 13.2868 11.8522 13.2295C11.8065 13.1723 11.7702 13.1037 11.7454 13.0278C11.7206 12.952 11.7079 12.8705 11.7079 12.7881C11.7079 12.4812 11.8816 12.2255 12.1184 12.1743H16.7842C16.21 10.5414 16.0524 8.71388 16.3342 6.95701V6.97747ZM8.33684 23.0386C8.77968 23.0386 9.20439 23.2665 9.51752 23.6723C9.83066 24.0781 10.0066 24.6284 10.0066 25.2022C10.0066 25.7761 9.83066 26.3264 9.51752 26.7322C9.20439 27.1379 8.77968 27.3659 8.33684 27.3659C7.894 27.3659 7.4693 27.1379 7.15616 26.7322C6.84302 26.3264 6.6671 25.7761 6.6671 25.2022C6.6671 24.6284 6.84302 24.0781 7.15616 23.6723C7.4693 23.2665 7.894 23.0386 8.33684 23.0386ZM8.33684 24.4299C7.98947 24.4299 7.70526 24.7777 7.70526 25.1971C7.70526 25.6165 7.98947 25.9644 8.33684 25.9644C8.67632 25.9644 8.96053 25.6165 8.96053 25.1971C8.9585 25.0928 8.94048 24.99 8.90753 24.8947C8.87458 24.7995 8.82735 24.7137 8.76859 24.6423C8.70982 24.5709 8.6407 24.5154 8.56522 24.4789C8.48975 24.4424 8.40944 24.4258 8.32895 24.4299H8.33684ZM18.3789 24.481C18.6632 24.481 18.8921 24.7981 18.8921 25.1971C18.8921 25.5961 18.6553 25.9132 18.3789 25.9132H11.6211C11.3368 25.9132 11.1079 25.5961 11.1079 25.1971C11.1079 24.7981 11.3447 24.481 11.6211 24.481H18.3789ZM8.33684 17.2791C8.77968 17.2791 9.20439 17.507 9.51752 17.9128C9.83066 18.3186 10.0066 18.8689 10.0066 19.4427C10.0066 20.0166 9.83066 20.5669 9.51752 20.9727C9.20439 21.3784 8.77968 21.6064 8.33684 21.6064C7.894 21.6064 7.4693 21.3784 7.15616 20.9727C6.84302 20.5669 6.6671 20.0166 6.6671 19.4427C6.6671 18.8689 6.84302 18.3186 7.15616 17.9128C7.4693 17.507 7.894 17.2791 8.33684 17.2791ZM8.33684 18.6704C7.98947 18.6704 7.70526 19.0182 7.70526 19.4376C7.70526 19.857 7.98947 20.2049 8.33684 20.2049C8.67632 20.2049 8.96053 19.857 8.96053 19.4376C8.9585 19.3333 8.94048 19.2305 8.90753 19.1353C8.87458 19.04 8.82735 18.9542 8.76859 18.8828C8.70982 18.8114 8.6407 18.7559 8.56522 18.7194C8.48975 18.6829 8.40944 18.6663 8.32895 18.6704H8.33684ZM18.3789 18.7215C18.6632 18.7215 18.8921 19.0387 18.8921 19.4376C18.8921 19.7957 18.7026 20.1026 18.4579 20.1537H11.6211C11.3368 20.1537 11.1079 19.8366 11.1079 19.4376C11.1079 19.0796 11.2974 18.7727 11.5421 18.7215H18.3789ZM23.1 1.22821C22.3321 1.21333 21.5695 1.39477 20.8558 1.76215C20.1421 2.12954 19.4913 2.67565 18.9406 3.36927C18.39 4.06288 17.9502 4.89037 17.6466 5.8044C17.3429 6.71844 17.1813 7.70108 17.1711 8.69611C17.1803 9.69201 17.3411 10.6758 17.6443 11.591C17.9475 12.5062 18.3871 13.3349 18.9379 14.0296C19.4886 14.7243 20.1398 15.2713 20.854 15.6393C21.5682 16.0073 22.3315 16.1891 23.1 16.1742C23.8672 16.1878 24.629 16.0053 25.3418 15.6373C26.0546 15.2693 26.7044 14.723 27.2543 14.0295C27.8041 13.3361 28.2431 12.509 28.5463 11.5957C28.8494 10.6823 29.0108 9.7005 29.021 8.70634C29.0108 7.71218 28.8494 6.73039 28.5463 5.81703C28.2431 4.90367 27.8041 4.07663 27.2543 3.38316C26.7044 2.68968 26.0546 2.14334 25.3418 1.77535C24.629 1.40736 23.8672 1.22491 23.1 1.23844V1.22821ZM8.33684 11.5094C8.55612 11.51 8.77314 11.5667 8.97552 11.676C9.17791 11.7854 9.36168 11.9453 9.51637 12.1467C9.67105 12.3481 9.79361 12.587 9.87704 12.8497C9.96047 13.1125 10.0031 13.394 10.0026 13.6781C10.0021 13.9623 9.95841 14.2435 9.87402 14.5057C9.78963 14.768 9.6662 15.0061 9.51079 15.2066C9.35537 15.407 9.17101 15.5658 8.96823 15.6739C8.76545 15.782 8.54822 15.8373 8.32895 15.8367C7.88611 15.8367 7.4614 15.6087 7.14826 15.2029C6.83513 14.7972 6.65921 14.2468 6.65921 13.673C6.65921 13.0992 6.83513 12.5488 7.14826 12.1431C7.4614 11.7373 7.88611 11.5094 8.32895 11.5094H8.33684ZM8.33684 12.9006C7.98947 12.9006 7.70526 13.2485 7.70526 13.6679C7.70526 14.0873 7.98947 14.4351 8.33684 14.4351C8.67632 14.4351 8.96053 14.0873 8.96053 13.6679C8.9585 13.5636 8.94048 13.4608 8.90753 13.3655C8.87458 13.2703 8.82735 13.1845 8.76859 13.1131C8.70982 13.0417 8.6407 12.9862 8.56522 12.9497C8.48975 12.9132 8.40944 12.8965 8.32895 12.9006H8.33684ZM23.2816 2.87524C23.55 2.87524 23.7632 3.1003 23.8026 3.38674V4.09261C24.8289 4.35859 25.5553 5.42251 25.5553 6.63988C25.5553 6.97747 25.3184 7.25368 25.0342 7.25368C24.7421 7.25368 24.5053 6.97747 24.5053 6.63988C24.5053 5.89309 23.9921 5.27929 23.3605 5.26906H23.2421C22.6105 5.33044 22.1368 5.95447 22.1605 6.69103C22.1842 7.42759 22.7053 8.0107 23.3368 8.0107C24.4658 8.0107 25.4211 9.01324 25.5474 10.3329C25.6579 11.5912 24.9789 12.7677 23.9447 13.1052L23.8105 13.1462V13.7907C23.8105 14.1385 23.5737 14.4045 23.2816 14.4045C23.0211 14.4045 22.8079 14.1794 22.7684 13.893L22.7605 13.7907V13.1257C21.7895 12.8188 21.1105 11.7856 21.1105 10.6091C21.1105 10.2715 21.3474 9.99532 21.6395 9.99532C21.9237 9.99532 22.1605 10.2715 22.1605 10.6091C22.1605 11.3661 22.6895 11.9799 23.3368 11.9799C23.9842 11.9799 24.5053 11.3661 24.5053 10.6091C24.5053 9.8521 23.9842 9.2383 23.3368 9.2383C22.2158 9.2383 21.2763 8.26645 21.1263 6.97747C20.9921 5.72941 21.6237 4.56319 22.6263 4.17445L22.7605 4.1233V3.5095C22.7605 3.16168 22.9974 2.8957 23.2816 2.8957V2.87524Z" fill="#17A700"/>
</svg>
