<svg width="36" height="31" viewBox="0 0 36 31" fill="none" xmlns="http://www.w3.org/2000/svg">
<path d="M29.0044 5.79215C32.08 5.79215 35.3778 6.71883 35.5289 8.72851V27.4185C35.5289 29.5398 32.1511 30.5 29.0044 30.5C25.9289 30.5 22.6311 29.5733 22.48 27.5636V8.87365C22.48 6.75233 25.8578 5.79215 29.0044 5.79215ZM34.3467 26.1904C33.0844 27.0166 30.9956 27.4185 29.0044 27.4185C27.1289 27.4185 25.1733 27.0724 23.8933 26.3355L23.6622 26.2015V27.4073C23.7511 27.8316 25.5289 28.9481 29.0044 28.9481C32.3733 28.9481 34.1511 27.8986 34.3378 27.4408L34.3467 27.3962V26.1904ZM34.3467 23.1089C33.0844 23.9351 30.9956 24.3258 29.0044 24.3258C27.1289 24.3258 25.1733 23.9797 23.8933 23.254L23.6622 23.1089V24.3258C23.7511 24.7389 25.5289 25.8666 29.0044 25.8666C32.3733 25.8666 34.1511 24.8059 34.3378 24.3482L34.3467 24.3147V23.1089ZM34.3467 20.0162C33.0844 20.8424 30.9956 21.2332 29.0044 21.2332C27.1289 21.2332 25.1733 20.8982 23.8933 20.1613L23.6622 20.0162V21.2332C23.7511 21.6463 25.5289 22.7739 29.0044 22.7739C32.3733 22.7739 34.1511 21.7132 34.3378 21.2667L34.3467 21.222V20.0162ZM30.1956 0.5H30.2756C30.3823 0.52823 30.4796 0.596882 30.5543 0.696699C30.629 0.796517 30.6775 0.922701 30.6933 1.05824V3.48102C30.6933 3.84946 30.4711 4.13975 30.1956 4.13975H30.1067C29.9988 4.11463 29.9001 4.04695 29.825 3.94656C29.7499 3.84616 29.7022 3.71828 29.6889 3.5815V1.83978H1.00444V19.0337H20.6844C20.96 19.0337 21.1911 19.3351 21.1911 19.7036C21.1911 20.0385 21.0133 20.3065 20.7644 20.3511L20.6756 20.3623H0.426667C0.318804 20.3372 0.220132 20.2695 0.144997 20.1691C0.0698624 20.0687 0.022182 19.9408 0.00888888 19.8041L0 19.6924V1.05824C0.017286 0.923944 0.0678074 0.799893 0.144395 0.703696C0.220982 0.607499 0.319744 0.544042 0.426667 0.52233L0.515555 0.511165H30.2044L30.1956 0.5ZM34.3467 16.9347C33.0844 17.7609 30.9956 18.1405 29.0044 18.1405C27.1289 18.1405 25.1733 17.8055 23.8933 17.0687L23.6622 16.9347V18.1405C23.7511 18.5648 25.5289 19.6924 29.0044 19.6924C32.3733 19.6924 34.1511 18.6317 34.3378 18.174L34.3467 18.1293V16.9347ZM10 3.59267C10.2844 3.59267 10.5067 3.88295 10.5067 4.2514C10.5067 4.58634 10.3289 4.8543 10.08 4.89896L10 4.91012H5.73333L3.38667 7.89114V12.9153L5.52 15.9298H10C10.2844 15.9298 10.5067 16.2313 10.5067 16.5997C10.5067 16.9347 10.3289 17.2026 10.08 17.2585H5.28889C5.17609 17.2594 5.0664 17.2121 4.97778 17.1245L4.91556 17.0463L2.49778 13.6187C2.43058 13.5208 2.38737 13.4006 2.37333 13.2726V7.69017C2.37333 7.5227 2.4 7.36639 2.46222 7.24358L2.51556 7.13193L5.17333 3.78247C5.24372 3.67916 5.3417 3.61167 5.44889 3.59267H10ZM14.7556 3.63733C15.4536 3.65187 16.1426 3.839 16.7831 4.18803C17.4236 4.53707 18.003 5.04116 18.4884 5.67154C18.9738 6.30191 19.3555 7.0462 19.6118 7.86191C19.8681 8.67761 19.994 9.54875 19.9822 10.4256C19.994 11.3024 19.8681 12.1735 19.6118 12.9892C19.3555 13.8049 18.9738 14.5492 18.4884 15.1796C18.003 15.81 17.4236 16.3141 16.7831 16.6631C16.1426 17.0121 15.4536 17.1993 14.7556 17.2138C13.3472 17.1786 12.0072 16.445 11.028 15.1732C10.0487 13.9014 9.50983 12.1947 9.52889 10.4256C9.51712 9.54875 9.64298 8.67761 9.89929 7.86191C10.1556 7.0462 10.5373 6.30191 11.0227 5.67154C11.5081 5.04116 12.0875 4.53707 12.728 4.18803C13.3685 3.839 14.0575 3.65187 14.7556 3.63733ZM34.3467 13.842C33.0844 14.6682 30.9956 15.059 29.0044 15.059C27.1289 15.059 25.1733 14.7129 23.8933 13.9872L23.6622 13.842V15.059C23.7511 15.4721 25.5289 16.5997 29.0044 16.5997C32.3733 16.5997 34.1511 15.5391 34.3378 15.0813L34.3467 15.0478V13.842ZM14.7556 4.86546C13.6019 4.89189 12.5037 5.49221 11.7021 6.53466C10.9005 7.5771 10.461 8.97647 10.48 10.4256C10.4609 11.8728 10.8993 13.2705 11.699 14.3126C12.4987 15.3547 13.5946 15.9563 14.7467 15.9857C15.3187 15.974 15.8832 15.821 16.4081 15.5352C16.933 15.2495 17.408 14.8367 17.8059 14.3204C18.2037 13.804 18.5167 13.1943 18.7269 12.5261C18.9372 11.8578 19.0405 11.144 19.0311 10.4256C19.0501 8.97647 18.6106 7.5771 17.809 6.53466C17.0074 5.49221 15.9092 4.89189 14.7556 4.86546ZM14.7556 6.95329C15.0844 6.95329 15.3422 7.28824 15.3422 7.72367H15.9378C16.2667 7.72367 16.5333 8.06978 16.5333 8.50521C16.5333 8.91831 16.2667 9.26442 15.9378 9.26442H14.4533C14.2756 9.26442 14.16 9.3984 14.16 9.46539C14.16 9.52121 14.2667 9.65519 14.4533 9.65519H15.1822C15.8933 9.68869 16.4978 10.4367 16.5333 11.3969C16.5212 11.809 16.396 12.2031 16.1789 12.5125C15.9618 12.8218 15.6662 13.0272 15.3422 13.094V13.1275C15.3422 13.5517 15.0756 13.909 14.7556 13.909C14.6754 13.9076 14.5963 13.8861 14.5228 13.8459C14.4493 13.8057 14.3829 13.7476 14.3275 13.6748C14.2721 13.6021 14.2287 13.5163 14.2 13.4223C14.1712 13.3283 14.1576 13.2281 14.16 13.1275H13.5644C13.4843 13.126 13.4052 13.1046 13.3317 13.0644C13.2582 13.0242 13.1918 12.966 13.1364 12.8933C13.081 12.8206 13.0376 12.7347 13.0089 12.6407C12.9801 12.5468 12.9665 12.4466 12.9689 12.3459C12.9689 11.9328 13.2356 11.5867 13.5644 11.5867H15.0489C15.2267 11.5867 15.3422 11.4527 15.3422 11.3857C15.3422 11.3299 15.2356 11.1959 15.0489 11.1959H14.4533C14.0729 11.211 13.7031 11.0363 13.4249 10.7099C13.1468 10.3835 12.9828 9.93203 12.9689 9.45422C12.981 9.04214 13.1062 8.648 13.3233 8.33867C13.5404 8.02935 13.836 7.82389 14.16 7.75716V7.72367C14.16 7.2994 14.4267 6.94213 14.7556 6.94213V6.95329ZM34.3467 10.7493C33.0844 11.5755 30.9956 11.9775 29.0044 11.9775C27.1289 11.9775 25.1733 11.6202 23.8933 10.8945L23.6622 10.7605V11.9663C23.7511 12.3906 25.5289 13.5182 29.0044 13.5182C32.3733 13.5182 34.1511 12.4576 34.3378 11.9998L34.3467 11.9552V10.7717V10.7493ZM29.0044 7.3329C25.6444 7.3329 23.8667 8.39356 23.6711 8.85132L23.6622 8.89598C23.7511 9.29792 25.5289 10.4256 29.0044 10.4256C32.4533 10.4256 34.2311 9.30908 34.3467 8.88482C34.2311 8.43822 32.4533 7.3329 29.0044 7.3329ZM24.2133 3.59267C24.4978 3.59267 24.7289 3.88295 24.7289 4.2514C24.7289 4.58634 24.5422 4.8543 24.3022 4.89896L24.2133 4.91012H19.5022C19.4337 4.90869 19.3662 4.89014 19.3035 4.85555C19.2408 4.82096 19.1842 4.77102 19.137 4.70866C19.0899 4.64629 19.0531 4.57275 19.0288 4.49232C19.0045 4.4119 18.9932 4.3262 18.9956 4.24023C18.9956 3.91645 19.1733 3.64849 19.4222 3.59267H24.2222H24.2133Z" fill="#6EBA3E"/>
</svg>
